# Blender v3.0.1 OBJ File: 'trying.blend'
# www.blender.org
o 0.0_Plane.009
v -0.500001 0.500000 0.000000
v -0.999999 -1.000001 0.000000
v 0.999999 1.000001 0.000000
v 0.499999 1.000001 0.000000
v 0.499999 0.750001 0.000000
v -0.250001 0.750000 0.000000
v -0.250001 0.500000 0.000000
v -0.500000 0.250000 0.000000
v -0.750000 0.249999 0.000000
v -0.750000 -0.500001 0.000000
v -1.000000 -0.500001 0.000000
v -0.500001 0.500000 1.500000
v -0.250001 0.750000 1.000000
v 0.499999 1.000001 1.500000
v 0.999999 1.000001 1.500000
v -0.750000 0.249999 1.000000
v -1.000000 -0.500001 1.500000
v -0.750000 -0.500001 1.500000
v -0.750000 -0.500001 2.000000
v -0.999999 -1.000001 1.500000
v 0.499999 0.750001 1.500000
v -0.250001 0.500000 1.000000
v -0.500000 0.250000 1.000000
v -0.500000 0.250000 1.500000
v -0.250001 0.500000 1.500000
v -0.250000 0.250000 1.500000
v -0.750000 -0.000001 1.000000
v -0.750000 -0.000001 1.500000
v -0.500000 -0.000000 1.000000
v -0.500000 -0.000000 1.500000
v -0.500000 -0.500001 1.500000
v -0.749999 -1.000001 1.500000
v -0.749999 -1.000001 2.000000
v -0.500000 -0.500001 2.000000
v -0.500000 0.250000 2.000000
v -0.250000 0.250000 2.000000
v -0.250001 0.500000 2.000000
v -0.000001 0.750000 1.500000
v -0.000001 0.750000 1.000000
v -0.000000 0.500000 1.000000
v -0.000000 0.500000 1.500000
v 0.500000 0.500000 1.500000
v 0.500000 0.500000 2.000000
v 0.499999 0.750001 2.000000
v 1.000000 0.750001 1.500000
v 1.000000 0.750001 2.000000
v -0.250000 -0.500000 2.000000
v 0.000000 -0.000000 2.000000
v -0.250000 -0.000000 2.000000
v 0.500000 0.250000 2.000000
v -0.000000 0.250000 2.000000
v 1.000000 0.500001 2.000000
v -0.499999 -1.000001 2.000000
v -0.500000 -0.500001 2.250000
v 0.500000 0.500000 2.250000
v -0.250000 -0.500000 2.250000
v 0.000000 -0.000000 2.250000
v -0.250000 -0.000000 2.250000
v 0.500000 0.250000 2.250000
v -0.000000 0.250000 2.250000
v 1.000000 0.500001 2.250000
v -0.499999 -1.000001 2.250000
v 1.000000 -0.249999 2.250000
v 0.500000 -0.250000 2.250000
v 0.500001 -0.500000 2.250000
v 0.250000 -0.500000 2.250000
v 0.250001 -1.000000 2.250000
v 1.000000 -0.249999 2.500000
v 0.500000 -0.250000 2.500000
v 0.500001 -0.500000 2.500000
v 0.250000 -0.500000 2.500000
v 0.250001 -1.000000 2.500000
v 1.000001 -0.999999 2.500000
v -0.500000 -0.000000 2.000000
v -0.000000 0.500000 2.000000
vt 0.750000 0.500000
vt 0.250000 0.625000
vt 0.250000 0.500000
vt 0.250000 0.500000
vt 0.750000 0.625000
vt 0.250000 0.625000
vt 0.500000 0.375000
vt 0.125000 0.250000
vt 0.125000 0.500000
vt 0.250000 0.625000
vt 0.750000 0.500000
vt 0.750000 0.625000
vt 0.750000 0.500000
vt 0.250000 0.625000
vt 0.250000 0.500000
vt 0.125000 0.500000
vt 0.125000 0.250000
vt 0.500000 0.375000
vt 0.750000 0.500000
vt 0.250000 0.625000
vt 0.250000 0.500000
vt 0.250000 0.500000
vt 0.750000 0.625000
vt 0.250000 0.625000
vt 0.375000 0.750000
vt 0.375000 0.625000
vt 0.625000 0.625000
vt 0.750000 0.625000
vt 0.750000 0.750000
vt 0.750000 0.750000
vt 0.250000 0.500000
vt 0.375000 0.625000
vt 0.250000 0.625000
vt 0.875000 0.625000
vt 1.000000 0.750000
vt 0.875000 0.750000
vt 1.000000 0.625000
vt 0.750000 0.750000
vt 0.750000 0.625000
vt 1.000000 0.750000
vt 0.750000 0.625000
vt 1.000000 0.625000
vt 1.000000 0.750000
vt 0.750000 0.625000
vt 1.000000 0.625000
vt 0.875000 0.625000
vt 0.625000 0.375000
vt 0.875000 0.375000
vt 1.000000 0.625000
vt 0.750000 0.500000
vt 1.000000 0.500000
vt 0.625000 0.625000
vt 0.875000 0.375000
vt 0.875000 0.625000
vt 0.125000 0.500000
vt 0.250000 0.250000
vt 0.250000 0.500000
vt 0.250000 0.500000
vt 0.125000 0.250000
vt 0.250000 0.250000
vt 0.250000 0.125000
vt 0.125000 -0.000000
vt 0.250000 -0.000000
vt 0.125000 0.125000
vt 0.375000 -0.000000
vt 0.375000 0.125000
vt 0.250000 0.125000
vt 0.375000 0.375000
vt 0.250000 0.375000
vt 0.250000 -0.000000
vt 0.500000 0.250000
vt 0.250000 0.250000
vt 0.375000 0.375000
vt 0.250000 0.125000
vt 0.375000 0.125000
vt 0.500000 0.250000
vt 0.250000 0.000000
vt 0.500000 0.000000
vt 0.250000 0.625000
vt 0.375000 0.625000
vt 0.500000 0.750000
vt 0.375000 0.625000
vt 0.000000 -0.000000
vt 0.125000 0.250000
vt 0.000000 0.250000
vt 1.000000 0.875000
vt 0.750000 0.750000
vt 1.000000 0.750000
vt 0.881532 0.062677
vt 0.928446 0.092271
vt 0.881532 0.092271
vt 0.881532 0.003491
vt 0.928446 0.033084
vt 0.881532 0.033084
vt 0.975359 0.033084
vt 0.998815 0.062677
vt 0.975359 0.062677
vt 0.928446 0.003491
vt 0.975359 0.033084
vt 0.928446 0.033084
vt 0.998815 0.062677
vt 0.975358 0.092271
vt 0.975358 0.062677
vt 0.928446 0.033084
vt 0.975359 0.062677
vt 0.928446 0.062677
vt 0.834620 0.092271
vt 0.811163 0.121864
vt 0.811163 0.092271
vt 0.834619 0.092271
vt 0.858076 0.121864
vt 0.834619 0.121864
vt 0.799203 0.063623
vt 0.789409 0.093007
vt 0.769819 0.073417
vt 0.975359 0.003491
vt 0.998815 0.033084
vt 0.975359 0.033084
vt 0.928446 0.062677
vt 0.975359 0.092271
vt 0.928446 0.092271
vt 0.881532 0.092271
vt 0.858076 0.121864
vt 0.858076 0.092271
vt 0.881532 0.033084
vt 0.928446 0.062677
vt 0.881532 0.062677
vt 0.858076 0.033084
vt 0.881532 0.092271
vt 0.811163 0.092271
vt 0.625000 0.750000
vt 0.375000 0.750000
vt 0.375000 0.625000
vt 0.625000 0.625000
vt 0.875000 0.625000
vt 0.875000 0.750000
vt 0.750000 0.500000
vt 0.625000 0.500000
vt 0.625000 0.375000
vt 0.500000 0.250000
vt 0.250000 0.500000
vt 0.750000 0.625000
vt 0.500000 0.250000
vt 0.625000 0.375000
vt 0.625000 0.500000
vt 0.750000 0.625000
vt 0.750000 0.500000
vt 0.750000 0.625000
vt 0.750000 0.750000
vt 0.375000 0.750000
vt 0.375000 0.625000
vt 0.375000 0.500000
vt 1.000000 0.625000
vt 1.000000 0.750000
vt 0.750000 0.750000
vt 0.750000 0.750000
vt 0.625000 0.625000
vt 0.750000 0.625000
vt 0.625000 0.375000
vt 0.125000 0.250000
vt 0.125000 0.500000
vt 0.125000 -0.000000
vt 0.375000 0.125000
vt 0.500000 -0.000000
vt 0.250000 0.250000
vt 0.375000 0.625000
vt 0.250000 0.500000
vt 0.250000 0.625000
vt 0.375000 0.625000
vt 0.250000 0.500000
vt 0.375000 0.500000
vt 0.250000 0.625000
vt 0.375000 0.750000
vt 0.625000 0.625000
vt 0.625000 0.750000
vt 0.125000 -0.000000
vt 0.750000 0.875000
vt 0.928446 0.062677
vt 0.928446 0.003491
vt 0.998815 0.033084
vt 0.975359 0.003491
vt 0.998815 0.092271
vt 0.975359 0.033084
vt 0.834620 0.121864
vt 0.858076 0.092271
vt 0.799203 0.102802
vt 0.779614 0.122392
vt 0.750229 0.093007
vt 0.760024 0.063623
vt 0.769819 0.053828
vt 0.750229 0.034238
vt 0.789409 0.034238
vt 0.779614 0.004854
vt 0.799203 0.024443
vt 0.808998 0.053828
vt 0.808998 0.073417
vt 0.998815 0.003491
vt 0.975359 0.062677
vt 0.881532 0.121864
vt 0.928446 0.033084
vt 0.811163 0.003491
vt 0.858076 0.003491
vt 0.881532 0.033084
vt 0.625000 0.625000
vt 0.875000 0.625000
vt 0.875000 0.750000
vt 0.625000 0.750000
vt 0.375000 0.625000
vn -1.0000 -0.0000 0.0000
vn -0.0000 1.0000 0.0000
vn -0.0000 0.0000 1.0000
s off
f 20/1/1 11/2/1 2/3/1
f 11/4/2 18/5/2 10/6/2
f 27/7/1 9/8/1 10/9/1
f 3/10/2 14/11/2 15/12/2
f 21/13/1 4/14/1 5/15/1
f 5/16/2 6/17/2 39/18/2
f 22/19/1 6/20/1 7/21/1
f 9/22/2 23/23/2 8/24/2
f 1/25/1 8/26/1 23/27/1
f 12/28/2 25/29/2 22/30/2
f 24/31/3 25/32/3 12/33/3
f 16/34/3 29/35/3 23/36/3
f 28/37/2 29/38/2 27/39/2
f 31/40/3 28/41/3 18/42/3
f 32/43/3 17/44/3 20/45/3
f 18/46/1 33/47/1 19/48/1
f 34/49/2 18/50/2 19/51/2
f 31/52/1 74/53/1 30/54/1
f 24/55/2 36/56/2 26/57/2
f 25/58/1 36/59/1 37/60/1
f 40/61/3 13/62/3 22/63/3
f 39/64/1 41/65/1 38/66/1
f 38/67/3 42/68/3 21/69/3
f 41/70/2 43/71/2 42/72/2
f 14/73/3 45/74/3 15/75/3
f 46/76/2 21/77/2 44/78/2
f 42/68/1 44/79/1 21/69/1
f 51/80/3 75/81/3 36/82/3
f 44/83/3 52/84/3 46/85/3
f 53/86/3 19/87/3 33/88/3
f 62/89/1 34/90/1 53/91/1
f 55/92/2 52/93/2 43/94/2
f 57/95/1 51/96/1 48/97/1
f 56/98/1 49/99/1 47/100/1
f 54/101/2 47/102/2 34/103/2
f 60/104/2 50/105/2 51/106/2
f 59/107/1 43/108/1 50/109/1
f 58/110/2 48/111/2 49/112/2
f 57/113/3 56/114/3 66/115/3
f 70/116/1 64/117/1 65/118/1
f 72/119/1 66/120/1 67/121/1
f 71/122/2 65/123/2 66/124/2
f 69/125/2 63/126/2 64/127/2
f 70/128/3 72/129/3 73/130/3
f 30/131/1 74/132/1 35/133/1
f 41/134/2 40/135/2 22/136/2
f 20/1/1 17/44/1 11/2/1
f 11/4/2 17/137/2 18/5/2
f 10/9/1 18/138/1 27/7/1
f 18/138/1 28/139/1 27/7/1
f 27/7/1 16/140/1 9/8/1
f 3/10/2 4/141/2 14/11/2
f 21/13/1 14/142/1 4/14/1
f 6/17/2 13/143/2 39/18/2
f 39/18/2 38/144/2 21/145/2
f 21/145/2 5/16/2 39/18/2
f 22/19/1 13/146/1 6/20/1
f 9/22/2 16/147/2 23/23/2
f 24/148/1 12/149/1 23/27/1
f 12/149/1 1/25/1 23/27/1
f 22/30/2 7/150/2 1/151/2
f 1/151/2 12/28/2 22/30/2
f 24/31/3 26/152/3 25/32/3
f 16/34/3 27/153/3 29/35/3
f 28/37/2 30/154/2 29/38/2
f 31/40/3 30/155/3 28/41/3
f 32/43/3 18/156/3 17/44/3
f 18/46/1 32/157/1 33/47/1
f 34/49/2 31/158/2 18/50/2
f 31/52/1 34/159/1 74/53/1
f 24/55/2 35/160/2 36/56/2
f 25/58/1 26/161/1 36/59/1
f 40/61/3 39/64/3 13/62/3
f 39/64/1 40/162/1 41/65/1
f 38/67/3 41/163/3 42/68/3
f 41/70/2 75/164/2 43/71/2
f 14/73/3 21/69/3 45/74/3
f 46/76/2 45/165/2 21/77/2
f 42/68/1 43/166/1 44/79/1
f 74/167/3 34/168/3 47/169/3
f 49/170/3 48/171/3 51/80/3
f 74/167/3 47/169/3 49/170/3
f 36/82/3 35/172/3 74/167/3
f 75/81/3 37/173/3 36/82/3
f 50/174/3 43/175/3 51/80/3
f 43/175/3 75/81/3 51/80/3
f 74/167/3 49/170/3 36/82/3
f 49/170/3 51/80/3 36/82/3
f 44/83/3 43/176/3 52/84/3
f 53/86/3 34/177/3 19/87/3
f 62/89/1 54/178/1 34/90/1
f 55/92/2 61/179/2 52/93/2
f 57/95/1 60/180/1 51/96/1
f 56/98/1 58/181/1 49/99/1
f 54/101/2 56/182/2 47/102/2
f 60/104/2 59/183/2 50/105/2
f 59/107/1 55/184/1 43/108/1
f 58/110/2 57/185/2 48/111/2
f 56/114/3 54/186/3 62/187/3
f 62/187/3 67/188/3 56/114/3
f 67/188/3 66/115/3 56/114/3
f 66/115/3 65/189/3 64/190/3
f 64/190/3 63/191/3 59/192/3
f 63/191/3 61/193/3 59/192/3
f 61/193/3 55/194/3 59/192/3
f 59/192/3 60/195/3 57/113/3
f 57/113/3 58/196/3 56/114/3
f 66/115/3 64/190/3 57/113/3
f 57/113/3 64/190/3 59/192/3
f 70/116/1 69/197/1 64/117/1
f 72/119/1 71/198/1 66/120/1
f 71/122/2 70/199/2 65/123/2
f 69/125/2 68/200/2 63/126/2
f 73/130/3 68/201/3 70/128/3
f 68/201/3 69/202/3 70/128/3
f 70/128/3 71/203/3 72/129/3
f 35/133/1 24/204/1 30/131/1
f 24/204/1 23/205/1 30/131/1
f 23/205/1 29/206/1 30/131/1
f 22/136/2 25/207/2 41/134/2
f 25/207/2 37/173/2 41/134/2
f 37/173/2 75/208/2 41/134/2
