# Blender v3.0.1 OBJ File: 'trying.blend'
# www.blender.org
o 2.2_Plane.005
v 0.500001 -0.500000 0.000000
v 0.999999 1.000001 0.000000
v -0.999999 -1.000001 0.000000
v -0.499999 -1.000001 0.000000
v -0.499999 -0.750001 0.000000
v 0.250001 -0.750000 0.000000
v 0.250001 -0.500000 0.000000
v 0.500000 -0.250000 0.000000
v 0.750000 -0.249999 0.000000
v 0.750000 0.500001 0.000000
v 1.000000 0.500001 0.000000
v 0.500001 -0.500000 1.500000
v 0.250001 -0.750000 1.000000
v -0.499999 -1.000001 1.500000
v -0.999999 -1.000001 1.500000
v 0.750000 -0.249999 1.000000
v 1.000000 0.500001 1.500000
v 0.750000 0.500001 1.500000
v 0.750000 0.500001 2.000000
v 0.999999 1.000001 1.500000
v -0.499999 -0.750001 1.500000
v 0.250001 -0.500000 1.000000
v 0.500000 -0.250000 1.000000
v 0.500000 -0.250000 1.500000
v 0.250001 -0.500000 1.500000
v 0.250000 -0.250000 1.500000
v 0.750000 0.000001 1.000000
v 0.750000 0.000001 1.500000
v 0.500000 0.000000 1.000000
v 0.500000 0.000000 1.500000
v 0.500000 0.500001 1.500000
v 0.749999 1.000001 1.500000
v 0.749999 1.000001 2.000000
v 0.500000 0.500001 2.000000
v 0.500000 -0.250000 2.000000
v 0.250000 -0.250000 2.000000
v 0.250001 -0.500000 2.000000
v 0.000001 -0.750000 1.500000
v 0.000001 -0.750000 1.000000
v 0.000000 -0.500000 1.000000
v 0.000000 -0.500000 1.500000
v -0.500000 -0.500000 1.500000
v -0.500000 -0.500000 2.000000
v -0.499999 -0.750001 2.000000
v -1.000000 -0.750001 1.500000
v -1.000000 -0.750001 2.000000
v 0.250000 0.500000 2.000000
v -0.000000 0.000000 2.000000
v 0.250000 0.000000 2.000000
v -0.500000 -0.250000 2.000000
v 0.000000 -0.250000 2.000000
v -1.000000 -0.500001 2.000000
v 0.499999 1.000001 2.000000
v 0.500000 0.500001 2.250000
v -0.500000 -0.500000 2.250000
v 0.250000 0.500000 2.250000
v -0.000000 0.000000 2.250000
v 0.250000 0.000000 2.250000
v -0.500000 -0.250000 2.250000
v 0.000000 -0.250000 2.250000
v -1.000000 -0.500001 2.250000
v 0.499999 1.000001 2.250000
v -1.000000 0.249999 2.250000
v -0.500000 0.250000 2.250000
v -0.500001 0.500000 2.250000
v -0.250000 0.500000 2.250000
v -0.250001 1.000000 2.250000
v -1.000000 0.249999 2.500000
v -0.500000 0.250000 2.500000
v -0.500001 0.500000 2.500000
v -0.250000 0.500000 2.500000
v -0.250001 1.000000 2.500000
v -1.000001 0.999999 2.500000
v 0.500000 0.000000 2.000000
v 0.000000 -0.500000 2.000000
vt 0.000000 0.000000
vt 0.125000 0.500000
vt 0.125000 0.000000
vt 0.000000 0.500000
vt 0.125000 0.000000
vt 0.000000 0.000000
vt 0.250000 0.000000
vt 0.250000 0.375000
vt 0.125000 0.375000
vt 0.500000 1.000000
vt 1.000000 0.875000
vt 0.500000 0.875000
vt 1.000000 0.875000
vt 0.500000 1.000000
vt 1.000000 1.000000
vt 0.500000 0.875000
vt 0.625000 0.875000
vt 1.000000 0.875000
vt 0.500000 1.000000
vt 1.000000 1.000000
vt 0.000000 0.500000
vt 0.125000 0.000000
vt 0.000000 0.000000
vt 0.125000 0.500000
vt 0.125000 0.000000
vt 0.000000 0.000000
vt 0.000000 0.500000
vt 0.125000 0.875000
vt 0.125000 0.000000
vt 0.500000 0.625000
vt 0.375000 0.500000
vt 0.375000 0.625000
vt 0.000000 0.125000
vt 0.125000 0.250000
vt 0.125000 0.125000
vt 0.125000 0.375000
vt 0.000000 0.375000
vt 0.375000 0.375000
vt 0.125000 0.250000
vt 0.125000 0.375000
vt 0.375000 0.375000
vt 0.125000 0.250000
vt 0.125000 0.375000
vt 0.125000 0.500000
vt 0.375000 0.250000
vt 0.125000 0.250000
vt 0.500000 0.375000
vt 0.250000 0.250000
vt 0.250000 0.375000
vt 0.125000 0.500000
vt 0.375000 0.250000
vt 0.125000 0.250000
vt 0.142857 0.857143
vt 0.285714 0.571428
vt 0.142857 0.571428
vt 0.142857 0.285714
vt 0.000000 0.000000
vt 0.000000 0.285714
vt 0.875000 1.000000
vt 0.750000 0.875000
vt 0.750000 1.000000
vt 0.625000 1.000000
vt 0.875000 0.875000
vt 0.625000 0.875000
vt 0.625000 0.625000
vt 0.750000 0.875000
vt 0.750000 0.625000
vt 0.500000 0.625000
vt 0.750000 0.875000
vt 0.750000 0.625000
vt 0.750000 0.875000
vt 0.625000 0.625000
vt 0.625000 0.875000
vt 0.750000 0.875000
vt 0.500000 0.625000
vt 0.500000 0.875000
vt 0.750000 0.500000
vt 0.625000 0.750000
vt 0.750000 0.750000
vt 0.500000 0.500000
vt 0.500000 0.375000
vt 0.375000 0.375000
vt 0.875000 0.750000
vt 1.000000 1.000000
vt 1.000000 0.750000
vt 0.250000 0.125000
vt 0.000000 -0.000000
vt 0.000000 0.125000
vt 0.071554 0.907729
vt 0.118468 0.937322
vt 0.118468 0.907729
vt 0.071554 0.966916
vt 0.118468 0.996509
vt 0.118468 0.966916
vt 0.001185 0.937322
vt 0.024641 0.966916
vt 0.024641 0.937322
vt 0.024641 0.966916
vt 0.071554 0.996509
vt 0.071554 0.966916
vt 0.024642 0.907729
vt 0.001185 0.937322
vt 0.024642 0.937322
vt 0.024641 0.937322
vt 0.071554 0.966916
vt 0.071554 0.937322
vt 0.188837 0.878136
vt 0.165380 0.907729
vt 0.188837 0.907729
vt 0.141924 0.878136
vt 0.165381 0.907729
vt 0.165381 0.878136
vt 0.230181 0.946172
vt 0.230181 0.926582
vt 0.200797 0.936377
vt 0.001185 0.966916
vt 0.024641 0.996509
vt 0.024641 0.966916
vt 0.024641 0.907729
vt 0.071554 0.937322
vt 0.071554 0.907729
vt 0.141924 0.878136
vt 0.118468 0.907729
vt 0.141924 0.907729
vt 0.071554 0.937322
vt 0.118468 0.966916
vt 0.118468 0.937322
vt 0.118468 0.907729
vt 0.118468 0.966916
vt 0.141924 0.966916
vt 0.250000 0.500000
vt 0.250000 0.750000
vt 0.375000 0.750000
vt 0.500000 0.625000
vt 0.250000 0.625000
vt 0.250000 0.750000
vt 0.000000 0.500000
vt 0.125000 0.500000
vt 0.125000 0.500000
vt 1.000000 1.000000
vt 0.500000 0.875000
vt 0.625000 0.750000
vt 1.000000 0.750000
vt 0.500000 0.875000
vt 0.125000 0.500000
vt 0.000000 0.875000
vt 0.125000 0.875000
vt 0.000000 0.000000
vt 0.000000 0.875000
vt 0.500000 0.500000
vt 0.000000 0.250000
vt 0.125000 0.125000
vt 0.375000 0.250000
vt 0.375000 0.500000
vt 0.500000 0.250000
vt 0.375000 0.500000
vt 0.285714 0.857143
vt 0.142857 0.000000
vt 0.875000 1.000000
vt 0.625000 0.875000
vt 0.500000 0.875000
vt 0.750000 0.625000
vt 0.625000 0.500000
vt 0.500000 0.750000
vt 0.625000 0.750000
vt 0.625000 0.562500
vt 0.625000 0.375000
vt 0.500000 0.250000
vt 0.312500 0.250000
vt 0.125000 0.250000
vt 0.125000 0.375000
vt 0.375000 0.500000
vt 0.875000 1.000000
vt 0.250000 -0.000000
vt 0.071554 0.937322
vt 0.071554 0.996509
vt 0.001185 0.966916
vt 0.024641 0.996509
vt 0.001185 0.907729
vt 0.024641 0.966916
vt 0.165380 0.878136
vt 0.141924 0.907729
vt 0.210591 0.906993
vt 0.191002 0.926582
vt 0.191002 0.946172
vt 0.210591 0.965762
vt 0.200797 0.975556
vt 0.220386 0.995146
vt 0.249771 0.965762
vt 0.239976 0.936377
vt 0.249771 0.906993
vt 0.220386 0.877608
vt 0.200797 0.897198
vt 0.001185 0.996509
vt 0.024641 0.937322
vt 0.118468 0.878136
vt 0.071554 0.966916
vt 0.141924 0.996509
vt 0.188837 0.996509
vt 0.188837 0.907729
vt 0.375000 0.500000
vt 0.375000 0.250000
vt 0.250000 0.250000
vt 0.500000 0.750000
vt 0.750000 0.750000
vt 0.750000 0.625000
vn -1.0000 -0.0000 0.0000
vn -0.0000 1.0000 0.0000
vn 0.0000 0.0000 -1.0000
s off
f 11/1/1 20/2/1 2/3/1
f 18/4/2 11/5/2 10/6/2
f 9/7/1 16/8/1 27/9/1
f 14/10/2 3/11/2 15/12/2
f 4/13/1 21/14/1 5/15/1
f 21/14/2 38/16/2 39/17/2
f 6/18/1 22/19/1 7/20/1
f 23/21/2 9/22/2 8/23/2
f 23/24/1 8/25/1 1/26/1
f 22/27/2 12/28/2 1/29/2
f 24/30/3 25/31/3 26/32/3
f 29/33/3 16/34/3 23/35/3
f 28/36/2 29/33/2 30/37/2
f 28/38/3 31/39/3 18/40/3
f 17/41/3 32/42/3 20/43/3
f 33/44/1 18/45/1 19/46/1
f 18/47/2 34/48/2 19/49/2
f 74/50/1 31/51/1 30/52/1
f 36/53/2 24/54/2 26/55/2
f 36/56/1 25/57/1 37/58/1
f 13/59/3 40/60/3 22/61/3
f 41/62/1 39/63/1 38/64/1
f 42/65/3 38/66/3 21/67/3
f 43/68/2 41/69/2 42/70/2
f 45/71/3 14/72/3 15/73/3
f 21/74/2 46/75/2 44/76/2
f 44/77/1 42/78/1 21/79/1
f 49/80/3 36/81/3 51/82/3
f 52/83/3 44/84/3 46/85/3
f 19/86/3 53/87/3 33/88/3
f 34/89/1 62/90/1 53/91/1
f 52/92/2 55/93/2 43/94/2
f 51/95/1 57/96/1 48/97/1
f 49/98/1 56/99/1 47/100/1
f 47/101/2 54/102/2 34/103/2
f 50/104/2 60/105/2 51/106/2
f 43/107/1 59/108/1 50/109/1
f 48/110/2 58/111/2 49/112/2
f 64/113/3 66/114/3 57/115/3
f 64/116/1 70/117/1 65/118/1
f 66/119/1 72/120/1 67/121/1
f 65/122/2 71/123/2 66/124/2
f 63/125/2 69/126/2 64/127/2
f 72/128/3 71/129/3 70/130/3
f 30/131/1 29/132/1 23/133/1
f 41/134/2 75/135/2 37/136/2
f 11/1/1 17/137/1 20/2/1
f 18/4/2 17/138/2 11/5/2
f 28/139/1 18/4/1 27/9/1
f 18/4/1 10/6/1 27/9/1
f 10/6/1 9/7/1 27/9/1
f 14/10/2 4/140/2 3/11/2
f 4/13/1 14/141/1 21/14/1
f 39/17/2 13/142/2 6/143/2
f 6/143/2 5/15/2 39/17/2
f 5/15/2 21/14/2 39/17/2
f 6/18/1 13/144/1 22/19/1
f 23/21/2 16/145/2 9/22/2
f 1/26/1 12/146/1 23/24/1
f 12/146/1 24/147/1 23/24/1
f 1/29/2 7/148/2 22/27/2
f 22/27/2 25/149/2 12/28/2
f 24/30/3 12/150/3 25/31/3
f 29/33/3 27/151/3 16/34/3
f 28/36/2 27/152/2 29/33/2
f 28/38/3 30/153/3 31/39/3
f 17/41/3 18/45/3 32/42/3
f 33/44/1 32/154/1 18/45/1
f 18/47/2 31/155/2 34/48/2
f 74/50/1 34/156/1 31/51/1
f 36/53/2 35/157/2 24/54/2
f 36/56/1 26/158/1 25/57/1
f 13/59/3 39/63/3 40/60/3
f 41/62/1 40/159/1 39/63/1
f 42/65/3 41/160/3 38/66/3
f 43/68/2 75/161/2 41/69/2
f 45/71/3 21/67/3 14/72/3
f 21/74/2 45/162/2 46/75/2
f 44/77/1 43/163/1 42/78/1
f 47/164/3 34/165/3 49/80/3
f 34/165/3 74/166/3 49/80/3
f 74/166/3 35/167/3 36/81/3
f 36/81/3 37/168/3 75/169/3
f 75/169/3 43/170/3 51/82/3
f 43/170/3 50/171/3 51/82/3
f 51/82/3 48/172/3 49/80/3
f 74/166/3 36/81/3 49/80/3
f 36/81/3 75/169/3 51/82/3
f 52/83/3 43/173/3 44/84/3
f 19/86/3 34/174/3 53/87/3
f 34/89/1 54/175/1 62/90/1
f 52/92/2 61/176/2 55/93/2
f 51/95/1 60/177/1 57/96/1
f 49/98/1 58/178/1 56/99/1
f 47/101/2 56/179/2 54/102/2
f 50/104/2 59/180/2 60/105/2
f 43/107/1 55/181/1 59/108/1
f 48/110/2 57/182/2 58/111/2
f 56/183/3 58/184/3 57/115/3
f 57/115/3 60/185/3 59/186/3
f 59/186/3 55/187/3 61/188/3
f 61/188/3 63/189/3 59/186/3
f 63/189/3 64/113/3 59/186/3
f 64/113/3 65/190/3 66/114/3
f 66/114/3 67/191/3 56/183/3
f 67/191/3 62/192/3 56/183/3
f 62/192/3 54/193/3 56/183/3
f 56/183/3 57/115/3 66/114/3
f 57/115/3 59/186/3 64/113/3
f 64/116/1 69/194/1 70/117/1
f 66/119/1 71/195/1 72/120/1
f 65/122/2 70/196/2 71/123/2
f 63/125/2 68/197/2 69/126/2
f 69/198/3 68/199/3 70/130/3
f 68/199/3 73/200/3 70/130/3
f 73/200/3 72/128/3 70/130/3
f 23/133/1 24/201/1 30/131/1
f 24/201/1 35/202/1 30/131/1
f 35/202/1 74/203/1 30/131/1
f 37/136/2 25/204/2 41/134/2
f 25/204/2 22/205/2 41/134/2
f 22/205/2 40/206/2 41/134/2
