# Blender v3.0.1 OBJ File: 'trying.blend'
# www.blender.org
o 2.0_Plane.006
v 0.500000 0.500001 0.000000
v 1.000001 -0.999999 0.000000
v -1.000001 0.999999 0.000000
v -0.500001 1.000000 0.000000
v -0.500001 0.750000 0.000000
v 0.249999 0.750000 0.000000
v 0.250000 0.500000 0.000000
v 0.500000 0.250000 0.000000
v 0.750000 0.250001 0.000000
v 0.750001 -0.500000 0.000000
v 1.000001 -0.499999 0.000000
v 0.500000 0.500001 1.500000
v 0.249999 0.750000 1.000000
v -0.500001 1.000000 1.500000
v -1.000001 0.999999 1.500000
v 0.750000 0.250001 1.000000
v 1.000001 -0.499999 1.500000
v 0.750001 -0.500000 1.500000
v 0.750001 -0.500000 2.000000
v 1.000001 -0.999999 1.500000
v -0.500001 0.750000 1.500000
v 0.250000 0.500000 1.000000
v 0.500000 0.250000 1.000000
v 0.500000 0.250000 1.500000
v 0.250000 0.500000 1.500000
v 0.250000 0.250000 1.500000
v 0.750000 0.000001 1.000000
v 0.750000 0.000001 1.500000
v 0.500000 0.000000 1.000000
v 0.500000 0.000000 1.500000
v 0.500001 -0.500000 1.500000
v 0.750001 -1.000000 1.500000
v 0.750001 -1.000000 2.000000
v 0.500001 -0.500000 2.000000
v 0.500000 0.250000 2.000000
v 0.250000 0.250000 2.000000
v 0.250000 0.500000 2.000000
v -0.000001 0.750000 1.500000
v -0.000001 0.750000 1.000000
v -0.000000 0.500000 1.000000
v -0.000000 0.500000 1.500000
v -0.500000 0.500000 1.500000
v -0.500000 0.500000 2.000000
v -0.500001 0.750000 2.000000
v -1.000001 0.749999 1.500000
v -1.000001 0.749999 2.000000
v 0.250000 -0.500000 2.000000
v 0.000000 -0.000000 2.000000
v 0.250000 0.000000 2.000000
v -0.500000 0.250000 2.000000
v -0.000000 0.250000 2.000000
v -1.000001 0.499999 2.000000
v 0.500001 -1.000000 2.000000
v 0.500001 -0.500000 2.250000
v -0.500000 0.500000 2.250000
v 0.250000 -0.500000 2.250000
v 0.000000 -0.000000 2.250000
v 0.250000 0.000000 2.250000
v -0.500000 0.250000 2.250000
v -0.000000 0.250000 2.250000
v -1.000001 0.499999 2.250000
v 0.500001 -1.000000 2.250000
v -1.000000 -0.250001 2.250000
v -0.500000 -0.250001 2.250000
v -0.500000 -0.500001 2.250000
v -0.250000 -0.500000 2.250000
v -0.249999 -1.000000 2.250000
v -1.000000 -0.250001 2.500000
v -0.500000 -0.250001 2.500000
v -0.500000 -0.500001 2.500000
v -0.250000 -0.500000 2.500000
v -0.249999 -1.000000 2.500000
v -0.999999 -1.000001 2.500000
v 0.500000 0.000000 2.000000
v -0.000000 0.500000 2.000000
vt 0.625000 0.000000
vt 0.625000 0.500000
vt 0.750000 0.500000
vt 0.625000 0.500000
vt 0.750000 0.500000
vt 0.750000 0.000000
vt 0.625000 0.250000
vt 0.875000 0.375000
vt 0.875000 0.125000
vt 0.500000 0.625000
vt -0.000000 0.625000
vt -0.000000 0.750000
vt 0.000000 0.750000
vt 0.500000 0.750000
vt 0.500000 0.625000
vt 0.125000 0.625000
vt 0.500000 0.625000
vt 0.250000 0.625000
vt 0.750000 0.625000
vt 0.750000 0.500000
vt 0.875000 0.000000
vt 0.625000 0.000000
vt 0.875000 0.250000
vt 0.625000 0.375000
vt 0.875000 0.375000
vt 0.375000 0.375000
vt 0.375000 0.250000
vt 0.375000 0.250000
vt 0.500000 0.500000
vt 0.625000 0.500000
vt 0.625000 0.375000
vt 0.625000 0.125000
vt 0.750000 0.125000
vt 0.750000 0.000000
vt 0.625000 0.000000
vt 0.750000 0.250000
vt 0.750000 0.125000
vt 0.625000 0.125000
vt 0.625000 0.375000
vt 0.750000 0.125000
vt 0.625000 0.125000
vt 0.625000 0.375000
vt 0.500000 0.000000
vt 0.500000 0.250000
vt 0.625000 0.125000
vt 0.500000 0.125000
vt 0.500000 0.375000
vt 0.750000 0.250000
vt 0.750000 0.000000
vt 0.500000 0.000000
vt 0.625000 0.750000
vt 0.625000 0.625000
vt 0.375000 0.625000
vt 0.625000 0.625000
vt 0.375000 0.625000
vt 0.375000 0.750000
vt 0.125000 0.625000
vt 0.000000 0.625000
vt 0.000000 0.750000
vt 0.375000 0.750000
vt 0.375000 0.500000
vt 0.250000 0.500000
vt 0.125000 0.750000
vt 0.375000 0.750000
vt 0.375000 0.625000
vt -0.000000 0.750000
vt 0.250000 0.750000
vt 0.250000 0.500000
vt 0.375000 0.625000
vt 0.125000 0.625000
vt 0.125000 0.750000
vt 0.250000 0.500000
vt 0.000000 0.500000
vt 0.250000 0.625000
vt 0.250000 0.750000
vt 0.500000 0.750000
vt 0.625000 0.625000
vt 0.625000 0.625000
vt 0.750000 0.500000
vt -0.000000 1.000000
vt 0.250000 1.000000
vt 0.250000 0.875000
vt 0.875000 0.000000
vt 0.750000 0.000000
vt 0.750000 0.250000
vt 0.062677 0.118468
vt 0.092271 0.118468
vt 0.092271 0.071554
vt 0.003491 0.118468
vt 0.033084 0.118468
vt 0.033084 0.071554
vt 0.033084 0.024641
vt 0.062677 0.024641
vt 0.062677 0.001185
vt 0.003491 0.071554
vt 0.033084 0.071554
vt 0.033084 0.024641
vt 0.062677 0.001185
vt 0.062677 0.024642
vt 0.092271 0.024642
vt 0.033084 0.071554
vt 0.062677 0.071554
vt 0.062677 0.024641
vt 0.092271 0.165380
vt 0.092271 0.188837
vt 0.121864 0.188837
vt 0.092271 0.165381
vt 0.121864 0.165381
vt 0.121864 0.141924
vt 0.063623 0.200797
vt 0.073417 0.230181
vt 0.093007 0.210591
vt 0.003491 0.024641
vt 0.033084 0.024641
vt 0.033084 0.001185
vt 0.062677 0.071554
vt 0.092271 0.071554
vt 0.092271 0.024641
vt 0.092271 0.118468
vt 0.092271 0.141924
vt 0.121864 0.141924
vt 0.033084 0.118468
vt 0.062677 0.118468
vt 0.062677 0.071554
vt 0.033084 0.141924
vt 0.092271 0.188837
vt 0.092271 0.118468
vt 0.625000 0.250000
vt 0.875000 0.375000
vt 0.875000 0.250000
vt 0.625000 0.375000
vt 0.375000 0.500000
vt 0.375000 0.375000
vt 0.750000 0.000000
vt 0.625000 0.000000
vt 0.500000 0.250000
vt 0.500000 0.750000
vt 0.000000 0.625000
vt 0.125000 0.625000
vt 0.000000 0.625000
vt 0.250000 0.500000
vt 0.375000 0.375000
vt 0.375000 0.250000
vt 0.875000 0.375000
vt 0.875000 0.250000
vt 0.500000 0.375000
vt 0.625000 0.000000
vt 0.750000 0.375000
vt 0.750000 0.375000
vt 0.750000 0.250000
vt 0.625000 0.375000
vt 0.500000 0.250000
vt 0.375000 0.750000
vt 0.625000 0.750000
vt 0.125000 0.750000
vt 0.250000 0.750000
vt 0.125000 0.625000
vt -0.000000 0.500000
vt 0.250000 0.750000
vt 0.500000 0.625000
vt 0.500000 0.750000
vt 0.375000 0.625000
vt 0.375000 0.750000
vt 0.500000 0.625000
vt 0.500000 0.625000
vt 0.625000 0.750000
vt 0.750000 0.625000
vt 0.625000 0.375000
vt 0.750000 0.375000
vt -0.000000 0.875000
vt 0.875000 0.250000
vt 0.062677 0.071554
vt 0.003491 0.071554
vt 0.033084 0.001185
vt 0.003491 0.024641
vt 0.092271 0.001185
vt 0.033084 0.024641
vt 0.121864 0.165380
vt 0.092271 0.141924
vt 0.122392 0.220386
vt 0.102802 0.200797
vt 0.093007 0.249771
vt 0.053828 0.230181
vt 0.063623 0.239976
vt 0.034238 0.210591
vt 0.034238 0.249771
vt 0.004854 0.220386
vt 0.024443 0.200797
vt 0.053828 0.191002
vt 0.073417 0.191002
vt 0.003491 0.001185
vt 0.062677 0.024641
vt 0.121864 0.118468
vt 0.033084 0.071554
vt 0.003491 0.188837
vt 0.003491 0.141924
vt 0.033084 0.118468
vt 0.625000 0.375000
vt 0.375000 0.375000
vt 0.375000 0.250000
vt 0.625000 0.500000
vt 0.875000 0.500000
vt 0.875000 0.375000
vn 1.0000 0.0000 0.0000
vn -0.0000 1.0000 0.0000
vn -0.0000 0.0000 1.0000
s off
f 20/1/1 2/2/1 11/3/1
f 11/4/2 10/5/2 18/6/2
f 27/7/1 10/8/1 9/9/1
f 3/10/2 15/11/2 14/12/2
f 21/13/1 5/14/1 4/15/1
f 5/14/2 39/16/2 6/17/2
f 22/18/1 7/19/1 6/20/1
f 9/9/2 8/21/2 23/22/2
f 1/23/1 23/24/1 8/25/1
f 12/26/2 22/27/2 25/28/2
f 24/29/3 12/30/3 25/31/3
f 16/32/3 23/33/3 29/34/3
f 28/35/2 27/7/2 29/36/2
f 31/37/3 18/38/3 28/39/3
f 32/40/3 20/41/3 17/42/3
f 18/6/1 19/43/1 33/44/1
f 34/45/2 19/46/2 18/47/2
f 31/48/1 30/49/1 74/50/1
f 24/51/2 26/52/2 36/53/2
f 25/54/1 37/55/1 36/56/1
f 40/57/3 22/58/3 13/59/3
f 39/60/1 38/61/1 41/62/1
f 38/63/3 21/64/3 42/65/3
f 41/66/2 42/67/2 43/68/2
f 14/69/3 15/70/3 45/71/3
f 46/72/2 44/73/2 21/13/2
f 42/74/1 21/75/1 44/76/1
f 51/77/3 36/78/3 75/79/3
f 44/80/3 46/81/3 52/82/3
f 53/83/3 33/84/3 19/85/3
f 62/86/1 53/87/1 34/88/1
f 55/89/2 43/90/2 52/91/2
f 57/92/1 48/93/1 51/94/1
f 56/95/1 47/96/1 49/97/1
f 54/98/2 34/99/2 47/100/2
f 60/101/2 51/102/2 50/103/2
f 59/104/1 50/105/1 43/106/1
f 58/107/2 49/108/2 48/109/2
f 57/110/3 66/111/3 56/112/3
f 70/113/1 65/114/1 64/115/1
f 72/116/1 67/117/1 66/118/1
f 71/119/2 66/120/2 65/121/2
f 69/122/2 64/123/2 63/124/2
f 70/125/3 73/126/3 72/127/3
f 30/128/1 35/129/1 74/130/1
f 41/131/2 22/132/2 40/133/2
f 20/1/1 11/3/1 17/134/1
f 11/4/2 18/6/2 17/135/2
f 10/8/1 27/7/1 18/47/1
f 18/47/1 27/7/1 28/136/1
f 27/7/1 9/9/1 16/32/1
f 3/10/2 14/12/2 4/137/2
f 21/13/1 4/15/1 14/138/1
f 6/17/2 39/16/2 13/139/2
f 39/16/2 21/13/2 38/140/2
f 21/13/2 39/16/2 5/14/2
f 22/18/1 6/20/1 13/141/1
f 9/9/2 23/22/2 16/32/2
f 24/142/1 23/24/1 12/143/1
f 12/143/1 23/24/1 1/23/1
f 22/27/2 1/144/2 7/145/2
f 1/144/2 22/27/2 12/26/2
f 24/29/3 25/31/3 26/146/3
f 16/32/3 29/34/3 27/147/3
f 28/35/2 29/36/2 30/49/2
f 31/37/3 28/39/3 30/148/3
f 32/40/3 17/42/3 18/149/3
f 18/6/1 33/44/1 32/150/1
f 34/45/2 18/47/2 31/151/2
f 31/48/1 74/50/1 34/152/1
f 24/51/2 36/53/2 35/153/2
f 25/54/1 36/56/1 26/154/1
f 40/57/3 13/59/3 39/155/3
f 39/60/1 41/62/1 40/156/1
f 38/63/3 42/65/3 41/157/3
f 41/66/2 43/68/2 75/158/2
f 14/69/3 45/71/3 21/64/3
f 46/72/2 21/13/2 45/159/2
f 42/74/1 44/76/1 43/160/1
f 74/161/3 47/162/3 34/163/3
f 49/164/3 51/77/3 48/165/3
f 74/161/3 49/164/3 47/162/3
f 36/78/3 74/161/3 35/166/3
f 75/79/3 36/78/3 37/167/3
f 50/168/3 51/77/3 43/169/3
f 43/169/3 51/77/3 75/79/3
f 74/161/3 36/78/3 49/164/3
f 49/164/3 36/78/3 51/77/3
f 44/80/3 52/82/3 43/170/3
f 53/83/3 19/85/3 34/171/3
f 62/86/1 34/88/1 54/172/1
f 55/89/2 52/91/2 61/173/2
f 57/92/1 51/94/1 60/174/1
f 56/95/1 49/97/1 58/175/1
f 54/98/2 47/100/2 56/176/2
f 60/101/2 50/103/2 59/177/2
f 59/104/1 43/106/1 55/178/1
f 58/107/2 48/109/2 57/179/2
f 56/112/3 62/180/3 54/181/3
f 62/180/3 56/112/3 67/182/3
f 67/182/3 56/112/3 66/111/3
f 66/111/3 64/183/3 65/184/3
f 64/183/3 59/185/3 63/186/3
f 63/186/3 59/185/3 61/187/3
f 61/187/3 59/185/3 55/188/3
f 59/185/3 57/110/3 60/189/3
f 57/110/3 56/112/3 58/190/3
f 66/111/3 57/110/3 64/183/3
f 57/110/3 59/185/3 64/183/3
f 70/113/1 64/115/1 69/191/1
f 72/116/1 66/118/1 71/192/1
f 71/119/2 65/121/2 70/193/2
f 69/122/2 63/124/2 68/194/2
f 73/126/3 70/125/3 68/195/3
f 68/195/3 70/125/3 69/196/3
f 70/125/3 72/127/3 71/197/3
f 35/129/1 30/128/1 24/198/1
f 24/198/1 30/128/1 23/199/1
f 23/199/1 30/128/1 29/200/1
f 22/132/2 41/131/2 25/201/2
f 25/201/2 41/131/2 37/202/2
f 37/202/2 41/131/2 75/203/2
